<?xml version="1.0" encoding="UTF-8"?>
<svg id="Layer_2" data-name="Layer 2" xmlns="http://www.w3.org/2000/svg" viewBox="0 0 276.48 208.55">
  <defs>
    <style>
      .cls-1 {
        fill: #7c3aed;
      }

      .cls-2 {
        fill: #6d28d9;
      }

      .cls-3 {
        fill: #a78bfa;
      }

      .cls-4 {
        fill: #8b5cf6;
      }
    </style>
  </defs>
  <g id="Layer_1-2" data-name="Layer 1">
    <g>
      <path class="cls-2" d="M134.01,34.28H17.14C7.67,34.28,0,26.61,0,17.14S7.67,0,17.14,0h116.87c9.47,0,17.14,7.67,17.14,17.14s-7.67,17.14-17.14,17.14Z"/>
      <path class="cls-1" d="M176.19,92.37H59.31c-9.47,0-17.14-7.67-17.14-17.14s7.67-17.14,17.14-17.14h116.87c9.47,0,17.14,7.67,17.14,17.14s-7.67,17.14-17.14,17.14Z"/>
      <path class="cls-4" d="M217.56,150.46h-116.87c-9.47,0-17.14-7.67-17.14-17.14s7.67-17.14,17.14-17.14h116.87c9.47,0,17.14,7.67,17.14,17.14s-7.67,17.14-17.14,17.14Z"/>
      <path class="cls-3" d="M259.34,208.55h-116.87c-9.47,0-17.14-7.67-17.14-17.14s7.67-17.14,17.14-17.14h116.87c9.47,0,17.14,7.67,17.14,17.14s-7.67,17.14-17.14,17.14Z"/>
    </g>
  </g>
</svg>