<?xml version="1.0" encoding="UTF-8"?>
<svg id="Layer_1" data-name="Layer 1" xmlns="http://www.w3.org/2000/svg" viewBox="0 0 512 512">
  <defs>
    <style>
      .cls-1 {
        fill: #7c3aed;
      }

      .cls-2 {
        fill: #6d28d9;
      }

      .cls-3 {
        fill: #a78bfa;
      }

      .cls-4 {
        fill: #8b5cf6;
      }
    </style>
  </defs>
  <path class="cls-2" d="M251.77,186.01h-116.87c-9.47,0-17.14-7.67-17.14-17.14s7.67-17.14,17.14-17.14h116.87c9.47,0,17.14,7.67,17.14,17.14s-7.67,17.14-17.14,17.14Z"/>
  <path class="cls-1" d="M293.95,244.1h-116.87c-9.47,0-17.14-7.67-17.14-17.14s7.67-17.14,17.14-17.14h116.87c9.47,0,17.14,7.67,17.14,17.14s-7.67,17.14-17.14,17.14Z"/>
  <path class="cls-4" d="M335.32,302.18h-116.87c-9.47,0-17.14-7.67-17.14-17.14s7.67-17.14,17.14-17.14h116.87c9.47,0,17.14,7.67,17.14,17.14s-7.67,17.14-17.14,17.14Z"/>
  <path class="cls-3" d="M377.1,360.27h-116.87c-9.47,0-17.14-7.67-17.14-17.14s7.67-17.14,17.14-17.14h116.87c9.47,0,17.14,7.67,17.14,17.14s-7.67,17.14-17.14,17.14Z"/>
</svg>