<?xml version="1.0" encoding="UTF-8"?>
<svg xmlns="http://www.w3.org/2000/svg" viewBox="0 0 398.7 73.56">
  <defs>
    <style>
      .cls-1 {
        isolation: isolate;
      }

      .cls-2 {
        fill: #7c3aed;
      }

      .cls-3 {
        fill: #0a0a0a;
      }

      .cls-4 {
        fill: #6d28d9;
      }

      .cls-5 {
        mix-blend-mode: difference;
      }

      .cls-6 {
        fill: #a78bfa;
      }

      .cls-7 {
        fill: #8b5cf6;
      }
    </style>
  </defs>
  <g class="cls-1">
    <g id="Layer_2" data-name="Layer 2">
      <g id="Layer_1-2" data-name="Layer 1">
        <g>
          <g>
            <path class="cls-4" d="M47.16,12.24H6.03c-3.33,0-6.03-2.7-6.03-6.03S2.7.17,6.03.17h41.12c3.33,0,6.03,2.7,6.03,6.03s-2.7,6.03-6.03,6.03Z"/>
            <path class="cls-2" d="M62,32.68H20.87c-3.33,0-6.03-2.7-6.03-6.03s2.7-6.03,6.03-6.03h41.12c3.33,0,6.03,2.7,6.03,6.03s-2.7,6.03-6.03,6.03Z"/>
            <path class="cls-7" d="M76.56,53.12h-41.12c-3.33,0-6.03-2.7-6.03-6.03s2.7-6.03,6.03-6.03h41.12c3.33,0,6.03,2.7,6.03,6.03s-2.7,6.03-6.03,6.03Z"/>
            <path class="cls-6" d="M91.26,73.56h-41.12c-3.33,0-6.03-2.7-6.03-6.03s2.7-6.03,6.03-6.03h41.12c3.33,0,6.03,2.7,6.03,6.03s-2.7,6.03-6.03,6.03Z"/>
          </g>
          <g class="cls-5">
            <path class="cls-3" d="M123.45.16c2.55,0,4.72.07,6.52.2,1.79.14,3.45.33,4.97.57,1.52.24,3.09.58,4.72,1.02l-.9,7.58c-1.68-.11-3.26-.2-4.72-.29-1.47-.08-3.03-.15-4.68-.2-1.66-.05-3.62-.08-5.9-.08-3.15,0-5.62.62-7.41,1.87-1.79,1.25-3.05,3.34-3.79,6.27s-1.1,6.98-1.1,12.14.37,9.2,1.1,12.13c.73,2.93,2,5.02,3.79,6.27,1.79,1.25,4.26,1.87,7.41,1.87,3.64,0,6.69-.07,9.16-.2,2.47-.13,4.9-.34,7.29-.61l.9,7.49c-2.44.76-4.97,1.3-7.57,1.63-2.61.33-5.86.49-9.77.49-5.65,0-10.15-.94-13.52-2.81-3.37-1.87-5.8-4.93-7.29-9.16-1.49-4.24-2.24-9.94-2.24-17.1s.75-12.87,2.24-17.1c1.49-4.24,3.92-7.29,7.29-9.16,3.37-1.87,7.87-2.81,13.52-2.81Z"/>
            <path class="cls-3" d="M153.01,0c1.95,0,2.93.98,2.93,2.93v4.56c0,1.95-.98,2.93-2.93,2.93h-4.4c-1.96,0-2.93-.98-2.93-2.93V2.93c0-1.95.98-2.93,2.93-2.93h4.4ZM155.69,17.35v39.99h-9.77V17.35h9.77Z"/>
            <path class="cls-3" d="M171.06,17.35l1.3,7.82.9,1.14v31.03h-9.86V17.35h7.66ZM190.6,16.37l-.98,9.12h-2.85c-2.12,0-4.26.35-6.43,1.06-2.17.71-4.89,1.77-8.14,3.18l-.65-5.78c2.82-2.39,5.7-4.25,8.63-5.58,2.93-1.33,5.75-2,8.47-2h1.95Z"/>
            <path class="cls-3" d="M212.36,16.37c1.36,0,2.85.05,4.48.16,1.63.11,3.29.33,4.97.65,1.68.33,3.2.79,4.56,1.38l-1.14,6.19c-2.01-.11-4-.19-5.99-.25-1.98-.05-3.71-.08-5.17-.08-2.77,0-4.96.37-6.56,1.1-1.6.73-2.76,2.04-3.46,3.91-.71,1.87-1.06,4.49-1.06,7.86s.35,5.99,1.06,7.86c.7,1.87,1.86,3.19,3.46,3.95,1.6.76,3.79,1.14,6.56,1.14.81,0,1.89-.03,3.22-.08,1.33-.05,2.77-.13,4.32-.24,1.55-.11,3.05-.25,4.52-.41l.98,6.35c-2.12.87-4.48,1.49-7.09,1.87-2.61.38-5.19.57-7.74.57-4.78,0-8.61-.68-11.48-2.04-2.88-1.36-4.96-3.57-6.23-6.64-1.28-3.07-1.91-7.18-1.91-12.34s.65-9.27,1.96-12.34c1.3-3.07,3.39-5.27,6.27-6.6,2.88-1.33,6.71-2,11.48-2Z"/>
            <path class="cls-3" d="M263.26,32.74l-.08,6.11h-18.33c-1.63.05-2.8.49-3.5,1.3-.71.81-1.06,1.93-1.06,3.34v2.2c0,1.63.43,2.86,1.3,3.71.87.84,2.23,1.26,4.07,1.26,1.47,0,3.09-.3,4.89-.9,1.79-.6,3.57-1.47,5.33-2.61,1.76-1.14,3.35-2.5,4.76-4.07v5.13c-.54.81-1.33,1.78-2.36,2.89-1.03,1.11-2.29,2.21-3.79,3.3-1.49,1.09-3.21,1.98-5.13,2.69-1.93.71-4.06,1.06-6.39,1.06s-4.54-.42-6.43-1.26c-1.9-.84-3.39-2.09-4.48-3.75-1.09-1.66-1.63-3.71-1.63-6.15v-4.24c0-3.15,1.04-5.61,3.14-7.37,2.09-1.76,4.95-2.65,8.59-2.65h21.09ZM252.67,16.37c3.2,0,5.91.42,8.1,1.26,2.2.84,3.87,2.27,5.01,4.28,1.14,2.01,1.71,4.78,1.71,8.31v27.12h-7.82l-1.38-8.63-.73-1.14v-17.43c0-2.12-.49-3.65-1.47-4.6-.98-.95-2.85-1.43-5.62-1.43-2.06,0-4.66.08-7.78.25-3.12.16-6.26.38-9.41.65l-.9-6.76c1.9-.38,4.04-.71,6.43-.98,2.39-.27,4.81-.49,7.25-.65,2.44-.16,4.64-.25,6.6-.25Z"/>
            <path class="cls-2" d="M285.41,1.14v43.17c0,1.58.42,2.76,1.26,3.54s2.05,1.18,3.62,1.18h19.87l.49,7.74c-3.69.33-7.53.53-11.52.61-3.99.08-7.94.12-11.85.12-4.13,0-7.15-1.06-9.08-3.18-1.93-2.12-2.89-4.8-2.89-8.06V1.14h10.1Z"/>
            <path class="cls-2" d="M333.29,16.37c4.89,0,8.78.68,11.69,2.04,2.9,1.36,5,3.58,6.27,6.68,1.28,3.1,1.91,7.2,1.91,12.3s-.64,9.19-1.91,12.26c-1.28,3.07-3.37,5.29-6.27,6.68-2.91,1.38-6.8,2.08-11.69,2.08s-8.62-.69-11.52-2.08c-2.91-1.38-5.01-3.61-6.31-6.68-1.3-3.07-1.95-7.15-1.95-12.26s.65-9.2,1.95-12.3c1.3-3.09,3.41-5.32,6.31-6.68,2.9-1.36,6.75-2.04,11.52-2.04ZM333.29,23.86c-2.39,0-4.28.39-5.66,1.18s-2.38,2.16-2.97,4.11c-.6,1.96-.9,4.7-.9,8.23s.3,6.27.9,8.23c.6,1.96,1.59,3.31,2.97,4.07,1.38.76,3.27,1.14,5.66,1.14s4.37-.38,5.78-1.14c1.41-.76,2.4-2.12,2.97-4.07.57-1.95.86-4.7.86-8.23s-.29-6.27-.86-8.23c-.57-1.95-1.56-3.33-2.97-4.11-1.41-.79-3.34-1.18-5.78-1.18Z"/>
            <path class="cls-2" d="M364.25,39.26l5.05.73c-.81.65-1.37,1.48-1.67,2.48-.3,1.01-.22,1.96.24,2.85.46.9,1.48,1.45,3.05,1.67l14.82,1.96c4.02.49,6.84,1.67,8.47,3.54,1.63,1.87,2.44,4.57,2.44,8.1,0,3.31-.65,5.89-1.95,7.74-1.3,1.85-3.43,3.14-6.39,3.87-2.96.73-6.94,1.1-11.93,1.1-3.96,0-7.25-.2-9.86-.61s-4.68-1.09-6.23-2.04c-1.55-.95-2.65-2.17-3.3-3.67-.65-1.49-.98-3.35-.98-5.58,0-1.74.29-3.2.86-4.4.57-1.19,1.51-2.27,2.81-3.22,1.3-.95,3.07-1.83,5.29-2.65l5.54-2.36,3.83,1.38-3.58,2.52c-1.25.92-2.27,1.75-3.05,2.48-.79.73-1.36,1.47-1.71,2.2-.35.73-.53,1.67-.53,2.81,0,1.52.31,2.69.94,3.5.62.81,1.72,1.37,3.3,1.67,1.57.3,3.77.45,6.6.45s5.1-.15,6.68-.45c1.57-.3,2.67-.84,3.3-1.63.62-.79.94-1.91.94-3.38,0-1.2-.19-2.08-.57-2.65-.38-.57-1.06-1.02-2.04-1.34-.98-.33-2.33-.6-4.07-.81l-13.36-1.63c-1.9-.22-3.41-.77-4.52-1.67-1.11-.9-1.89-1.98-2.32-3.26-.44-1.27-.56-2.55-.37-3.83.19-1.28.65-2.46,1.38-3.54.73-1.09,1.7-1.87,2.89-2.36ZM375.97,16.37c4.51,0,8.08.42,10.71,1.26,2.63.84,4.52,2.2,5.66,4.07,1.14,1.87,1.71,4.33,1.71,7.37s-.57,5.33-1.71,7.21c-1.14,1.87-3.04,3.25-5.7,4.11-2.66.87-6.24,1.3-10.75,1.3s-8.08-.43-10.71-1.3c-2.63-.87-4.53-2.23-5.7-4.07-1.17-1.85-1.75-4.26-1.75-7.25s.58-5.5,1.75-7.37c1.17-1.87,3.08-3.23,5.74-4.07,2.66-.84,6.24-1.26,10.75-1.26ZM375.89,22.8c-3.42,0-5.78.46-7.09,1.38-1.3.92-1.95,2.55-1.95,4.89s.65,3.82,1.95,4.76c1.3.95,3.67,1.42,7.09,1.42s5.77-.47,7.04-1.42c1.28-.95,1.91-2.54,1.91-4.76s-.64-3.96-1.91-4.89c-1.28-.92-3.62-1.38-7.04-1.38ZM398.7,17.35l-.57,4.56-10.43,1.14-2.93-5.7h13.93Z"/>
          </g>
        </g>
      </g>
    </g>
  </g>
</svg>