<?xml version="1.0" encoding="UTF-8"?>
<svg xmlns="http://www.w3.org/2000/svg" viewBox="0 0 512 512">
  <defs>
    <style>
      .cls-1 {
        fill: #0f0f1e;
      }

      .cls-2 {
        fill: #7c3aed;
      }

      .cls-3 {
        fill: #6d28d9;
      }

      .cls-4 {
        fill: #a78bfa;
      }

      .cls-5 {
        fill: #8b5cf6;
      }
    </style>
  </defs>
  <rect class="cls-1" width="512" height="512"/>
  <g id="Layer_1" data-name="Layer 1">
    <g>
      <path class="cls-3" d="M248.33,128.98H36.23c-17.18,0-31.11-13.93-31.11-31.11s13.93-31.11,31.11-31.11h212.1c17.18,0,31.11,13.93,31.11,31.11s-13.93,31.11-31.11,31.11Z"/>
      <path class="cls-2" d="M324.86,234.4H112.76c-17.18,0-31.11-13.93-31.11-31.11s13.93-31.11,31.11-31.11h212.1c17.18,0,31.11,13.93,31.11,31.11s-13.93,31.11-31.11,31.11Z"/>
      <path class="cls-5" d="M399.96,339.82h-212.1c-17.18,0-31.11-13.93-31.11-31.11s13.93-31.11,31.11-31.11h212.1c17.18,0,31.11,13.93,31.11,31.11s-13.93,31.11-31.11,31.11Z"/>
      <path class="cls-4" d="M475.77,445.24h-212.1c-17.18,0-31.11-13.93-31.11-31.11s13.93-31.11,31.11-31.11h212.1c17.18,0,31.11,13.93,31.11,31.11s-13.93,31.11-31.11,31.11Z"/>
    </g>
  </g>
</svg>