<?xml version="1.0" encoding="UTF-8"?>
<svg id="Layer_1" data-name="Layer 1" xmlns="http://www.w3.org/2000/svg" viewBox="0 0 512 512">
  <defs>
    <style>
      .cls-1 {
        fill: #7c3aed;
      }

      .cls-2 {
        fill: #6d28d9;
      }

      .cls-3 {
        fill: #a78bfa;
      }

      .cls-4 {
        fill: #8b5cf6;
      }
    </style>
  </defs>
  <path class="cls-2" d="M250.65,167.4H102.7c-11.98,0-21.7-9.71-21.7-21.7s9.71-21.7,21.7-21.7h147.95c11.98,0,21.7,9.71,21.7,21.7s-9.71,21.7-21.7,21.7Z"/>
  <path class="cls-1" d="M304.04,240.93h-147.95c-11.98,0-21.7-9.71-21.7-21.7s9.71-21.7,21.7-21.7h147.95c11.98,0,21.7,9.71,21.7,21.7s-9.71,21.7-21.7,21.7Z"/>
  <path class="cls-4" d="M356.42,314.47h-147.95c-11.98,0-21.7-9.71-21.7-21.7s9.71-21.7,21.7-21.7h147.95c11.98,0,21.7,9.71,21.7,21.7s-9.71,21.7-21.7,21.7Z"/>
  <path class="cls-3" d="M409.3,388h-147.95c-11.98,0-21.7-9.71-21.7-21.7s9.71-21.7,21.7-21.7h147.95c11.98,0,21.7,9.71,21.7,21.7s-9.71,21.7-21.7,21.7Z"/>
</svg>